# xmcd
#
# Track frame offsets: 
#        150
#        16976
#        37362
#        60246
#        76682
#        101702
#        124928
#        148154
#        161733
#        174508
#
# Disc length: 2613 seconds
#
# Revision: 0
# Processed by: cddbd v1.5.2PL0 Copyright (c) Steve Scherf et al.
# Submitted via: ExactAudioCopy v0.99pb5
#
DISCID=830a330a
DTITLE=Indianna Dawn - Somebody's Dead
DYEAR=2011
DGENRE=Indie
TTITLE0=I Always Miss You
TTITLE1=Can't Seem To Let It Be
TTITLE2=Somebody's Dead
TTITLE3=More Than Alright
TTITLE4=Oh Nashville
TTITLE5=A Day Too Long
TTITLE6=Honey Blue Over You
TTITLE7=So We Can Be Together
TTITLE8=Issues I Have
TTITLE9=Rediscovering Myself
EXTD=
EXTT0=
EXTT1=
EXTT2=
EXTT3=
EXTT4=
EXTT5=
EXTT6=
EXTT7=
EXTT8=
EXTT9=
PLAYORDER=
